<svg width="41" height="41" viewBox="0 0 41 41" fill="none" xmlns="http://www.w3.org/2000/svg">
<path d="M20.5001 11.9583V5.125H3.41675V35.875H37.5834V11.9583H20.5001ZM10.2501 32.4583H6.83341V29.0417H10.2501V32.4583ZM10.2501 25.625H6.83341V22.2083H10.2501V25.625ZM10.2501 18.7917H6.83341V15.375H10.2501V18.7917ZM10.2501 11.9583H6.83341V8.54167H10.2501V11.9583ZM17.0834 32.4583H13.6667V29.0417H17.0834V32.4583ZM17.0834 25.625H13.6667V22.2083H17.0834V25.625ZM17.0834 18.7917H13.6667V15.375H17.0834V18.7917ZM17.0834 11.9583H13.6667V8.54167H17.0834V11.9583ZM34.1667 32.4583H20.5001V29.0417H23.9167V25.625H20.5001V22.2083H23.9167V18.7917H20.5001V15.375H34.1667V32.4583ZM30.7501 18.7917H27.3334V22.2083H30.7501V18.7917ZM30.7501 25.625H27.3334V29.0417H30.7501V25.625Z" fill="black"/>
</svg>
