<svg width="18" height="18" viewBox="0 0 18 18" fill="none" xmlns="http://www.w3.org/2000/svg">
<path d="M6.66667 9.55787C6.66667 9.83616 6.58847 10.1082 6.44196 10.3396C6.29545 10.571 6.08721 10.7513 5.84358 10.8578C5.59994 10.9643 5.33185 10.9921 5.07321 10.9379C4.81457 10.8836 4.57699 10.7496 4.39052 10.5528C4.20405 10.356 4.07707 10.1053 4.02562 9.83237C3.97417 9.55943 4.00058 9.27653 4.10149 9.01943C4.20241 8.76233 4.37331 8.54258 4.59257 8.38798C4.81184 8.23337 5.06962 8.15085 5.33333 8.15085C5.68696 8.15085 6.02609 8.29909 6.27614 8.56296C6.52619 8.82683 6.66667 9.18471 6.66667 9.55787ZM12.6667 8.15085C12.403 8.15085 12.1452 8.23337 11.9259 8.38798C11.7066 8.54258 11.5357 8.76233 11.4348 9.01943C11.3339 9.27653 11.3075 9.55943 11.359 9.83237C11.4104 10.1053 11.5374 10.356 11.7239 10.5528C11.9103 10.7496 12.1479 10.8836 12.4065 10.9379C12.6652 10.9921 12.9333 10.9643 13.1769 10.8578C13.4205 10.7513 13.6288 10.571 13.7753 10.3396C13.9218 10.1082 14 9.83616 14 9.55787C14 9.18471 13.8595 8.82683 13.6095 8.56296C13.3594 8.29909 13.0203 8.15085 12.6667 8.15085ZM18 1.75884V9.20612C18 14.0551 13.9627 18 9 18C4.03733 18 1.10713e-09 14.0551 1.10713e-09 9.20612V1.75884C-1.20116e-05 1.41097 0.0977328 1.07091 0.280873 0.781671C0.464013 0.492427 0.724322 0.266991 1.02888 0.133871C1.33344 0.0007522 1.66856 -0.0340704 1.99188 0.0338078C2.31519 0.101686 2.61217 0.269216 2.84525 0.515211L4.09375 1.8328C5.01751 1.25009 6.02885 0.838269 7.08408 0.615109C7.13178 0.601727 7.18036 0.592115 7.22942 0.586353C8.39908 0.354254 9.59948 0.354195 10.7692 0.586177C10.819 0.591901 10.8683 0.601602 10.9167 0.615197C11.9716 0.838421 12.9827 1.25021 13.9063 1.8328L15.1547 0.515299C15.3878 0.269309 15.6848 0.101781 16.0081 0.0339C16.3314 -0.0339809 16.6665 0.000834217 16.9711 0.133943C17.2756 0.267051 17.5359 0.492474 17.7191 0.781704C17.9022 1.07093 18 1.41098 18 1.75884ZM16 2.60807L14.7406 3.93717C14.5709 4.11623 14.3459 4.22494 14.1066 4.24344C13.8673 4.26194 13.6297 4.18901 13.4371 4.03795C12.8949 3.6152 12.2989 3.27534 11.6667 3.02841V4.98505C11.6667 5.26493 11.5613 5.53334 11.3738 5.73124C11.1862 5.92914 10.9319 6.04032 10.6667 6.04032C10.4015 6.04032 10.1471 5.92914 9.95956 5.73124C9.77202 5.53334 9.66667 5.26493 9.66667 4.98505V2.55442C9.44567 2.53411 9.22333 2.52277 9 2.52277C8.77667 2.52277 8.55433 2.53411 8.33333 2.55442V4.98505C8.33333 5.26493 8.22798 5.53334 8.04044 5.73124C7.8529 5.92914 7.59855 6.04032 7.33333 6.04032C7.06812 6.04032 6.81376 5.92914 6.62623 5.73124C6.43869 5.53334 6.33333 5.26493 6.33333 4.98505V3.02841C5.70109 3.27533 5.10504 3.6152 4.56283 4.03795C4.37023 4.18895 4.13259 4.26183 3.89329 4.2433C3.65399 4.22476 3.42899 4.11605 3.25933 3.937L2 2.60807V9.20612C2 12.5671 4.61233 15.3553 8 15.8202V14.5677L6.95958 13.4697C6.77457 13.2713 6.67136 13.0037 6.67243 12.7254C6.67351 12.447 6.77878 12.1803 6.96532 11.9835C7.15186 11.7866 7.40455 11.6755 7.66835 11.6744C7.93216 11.6733 8.1857 11.7822 8.37375 11.9774L9 12.6382L9.62625 11.9774C9.8143 11.7822 10.0678 11.6733 10.3316 11.6744C10.5955 11.6755 10.8481 11.7866 11.0347 11.9835C11.2212 12.1803 11.3265 12.447 11.3276 12.7254C11.3286 13.0037 11.2254 13.2713 11.0404 13.4697L10 14.5678V15.8201C13.3877 15.3553 16 12.5671 16 9.20612V2.60807Z" fill="black"/>
</svg>
