<svg width="49" height="49" viewBox="0 0 49 49" fill="none" xmlns="http://www.w3.org/2000/svg">
<path d="M19.8348 24.5C22.1848 24.5 23.9181 22.7667 23.9181 20.4167C23.9181 18.0667 22.1848 16.3334 19.8348 16.3334C17.4848 16.3334 15.7515 18.0667 15.7515 20.4167C15.7515 22.7667 17.4828 24.5 19.8348 24.5Z" fill="black"/>
<path d="M40.8334 8.16663H8.16671C5.91475 8.16663 4.08337 9.88367 4.08337 11.9948V37.0052C4.08337 39.1162 5.91475 40.8333 8.16671 40.8333H40.8334C43.0853 40.8333 44.9167 39.1162 44.9167 37.0052V11.9948C44.9167 9.88367 43.0853 8.16663 40.8334 8.16663ZM40.8334 36.75L8.16671 36.7275V12.25L40.8334 12.2724V36.75Z" fill="black"/>
<path d="M28.5833 18.375H36.75V22.4583H28.5833V18.375ZM30.625 26.5417H36.75V30.625H30.625V26.5417ZM27.4196 31.7193C27.4196 28.9141 23.9978 26.0313 19.8348 26.0313C15.6718 26.0313 12.25 28.9141 12.25 31.7193V32.6667H27.4196V31.7193Z" fill="black"/>
</svg>
