<svg width="22" height="18" viewBox="0 0 22 18" fill="none" xmlns="http://www.w3.org/2000/svg">
<path d="M9.13809 9.96821C9.13809 10.2445 9.05073 10.5145 8.88706 10.7442C8.72339 10.974 8.49075 11.153 8.21858 11.2587C7.9464 11.3644 7.64691 11.3921 7.35797 11.3382C7.06903 11.2843 6.80362 11.1513 6.59531 10.9559C6.38699 10.7606 6.24513 10.5117 6.18766 10.2407C6.13018 9.96976 6.15968 9.6889 6.27242 9.43366C6.38516 9.17842 6.57607 8.96027 6.82103 8.80678C7.06598 8.6533 7.35396 8.57137 7.64856 8.57137C8.04361 8.57137 8.42248 8.71854 8.70182 8.9805C8.98116 9.24245 9.13809 9.59774 9.13809 9.96821ZM14.3514 8.57137C14.0568 8.57137 13.7688 8.6533 13.5239 8.80678C13.2789 8.96027 13.088 9.17842 12.9753 9.43366C12.8625 9.6889 12.833 9.96976 12.8905 10.2407C12.948 10.5117 13.0899 10.7606 13.2982 10.9559C13.5065 11.1513 13.7719 11.2843 14.0608 11.3382C14.3498 11.3921 14.6493 11.3644 14.9214 11.2587C15.1936 11.153 15.4263 10.974 15.5899 10.7442C15.7536 10.5145 15.841 10.2445 15.841 9.96821C15.841 9.59774 15.684 9.24245 15.4047 8.9805C15.1253 8.71854 14.7465 8.57137 14.3514 8.57137ZM20.9033 10.9811C20.6578 11.0866 20.391 11.1415 20.1209 11.1422C19.9321 11.1421 19.7444 11.1141 19.5648 11.0595V14.1587C19.5635 15.1771 19.1316 16.1535 18.3637 16.8736C17.5957 17.5938 16.5546 17.9988 15.4686 18H6.53142C5.44542 17.9988 4.40425 17.5938 3.63633 16.8736C2.86841 16.1535 2.43645 15.1771 2.43522 14.1587V11.0596C2.25558 11.1142 2.06792 11.1421 1.87907 11.1422C1.609 11.1415 1.34223 11.0866 1.0967 10.9811C0.714077 10.8234 0.40033 10.5479 0.207346 10.2002C0.0143631 9.85257 -0.0462937 9.45355 0.0354083 9.06917L1.56385 1.4243C1.61063 1.1903 1.70794 0.967749 1.84981 0.770317C1.99168 0.572885 2.17511 0.404746 2.38882 0.276235C2.60252 0.147723 2.842 0.0615527 3.09252 0.0230207C3.34305 -0.0155113 3.59933 -0.00559123 3.84562 0.0521712L8.90312 1.238H13.0967L18.1545 0.0522585C18.4007 -0.00546476 18.657 -0.0153599 18.9074 0.0231807C19.1579 0.0617214 19.3974 0.147884 19.611 0.276374C19.8247 0.404865 20.0081 0.57297 20.15 0.770361C20.2918 0.967751 20.3891 1.19026 20.436 1.42421L21.9646 9.06908C22.0463 9.45349 21.9856 9.85253 21.7926 10.2002C21.5996 10.5479 21.2859 10.8234 20.9032 10.9811H20.9033ZM15.1779 2.90974L19.4885 8.05446L18.313 2.17483L15.1779 2.90974ZM2.51156 8.05454L6.82206 2.90983L3.68707 2.17492L2.51156 8.05454ZM17.3305 14.1587V8.87012L12.6914 3.33325H9.30864L4.66951 8.87021V14.1587C4.67008 14.6216 4.86642 15.0654 5.21548 15.3928C5.56453 15.7201 6.03778 15.9042 6.53142 15.9047H9.88285V15.291L8.72056 14.201C8.51387 14.004 8.39857 13.7384 8.39977 13.4621C8.40097 13.1857 8.51857 12.921 8.72696 12.7255C8.93535 12.5301 9.21765 12.4198 9.51235 12.4187C9.80706 12.4176 10.0903 12.5257 10.3004 12.7195L11 13.3755L11.6996 12.7195C11.9097 12.5257 12.1929 12.4176 12.4876 12.4187C12.7823 12.4198 13.0646 12.5301 13.273 12.7255C13.4814 12.921 13.599 13.1857 13.6002 13.4621C13.6014 13.7384 13.4861 14.004 13.2794 14.201L12.1171 15.2911V15.9047H15.4686C15.9622 15.9042 16.4355 15.7201 16.7845 15.3928C17.1336 15.0654 17.3299 14.6216 17.3305 14.1587V14.1587Z" fill="black"/>
</svg>
