<svg width="44" height="48" viewBox="0 0 44 48" fill="none" xmlns="http://www.w3.org/2000/svg">
<path d="M27.5 23.5823C27.5 25.1379 26.9205 26.6297 25.8891 27.7297C24.8576 28.8297 23.4587 29.4476 22 29.4476C20.5413 29.4476 19.1424 28.8297 18.1109 27.7297C17.0795 26.6297 16.5 25.1379 16.5 23.5823C16.5 22.0267 17.0795 20.5348 18.1109 19.4348C19.1424 18.3349 20.5413 17.7169 22 17.7169C23.4587 17.7169 24.8576 18.3349 25.8891 19.4348C26.9205 20.5348 27.5 22.0267 27.5 23.5823ZM44 23.5823C44 36.533 34.144 47.0437 22 47.0437C9.856 47.0437 0 36.533 0 23.5823C0 10.6316 9.856 0.12085 22 0.12085C34.144 0.12085 44 10.6316 44 23.5823ZM39.6 23.5823H30.8C30.8 18.3973 26.862 14.1977 22 14.1977C17.138 14.1977 13.2 18.3973 13.2 23.5823H4.4C4.4 33.9288 12.298 42.3514 22 42.3514C31.702 42.3514 39.6 33.9288 39.6 23.5823Z" fill="black"/>
</svg>
