<svg width="40" height="42" viewBox="0 0 40 42" fill="none" xmlns="http://www.w3.org/2000/svg">
<path d="M28.125 0.185547C25.2114 0.185547 22.5708 0.767815 20.507 1.86477C18.4449 2.96172 16.75 4.74838 16.75 7.11731V14.0491C16.75 14.2726 16.8199 14.4892 16.8524 14.6989C15.2258 14.2581 13.5533 14.0398 11.875 14.0491C8.96138 14.0491 6.32075 14.6313 4.257 15.7283C2.19487 16.8252 0.5 18.6119 0.5 20.9808V34.8444C0.5 37.2133 2.19488 39 4.25863 40.0969C6.32075 41.1939 8.96138 41.7761 11.875 41.7761C14.7886 41.7761 17.4292 41.1939 19.493 40.0969C21.5535 39 23.25 37.2133 23.25 34.8444V34.1408C24.8396 34.5991 26.4783 34.8356 28.125 34.8444C31.0386 34.8444 33.6792 34.2621 35.743 33.1651C37.8035 32.0682 39.5 30.2815 39.5 27.9126V7.11731C39.5 4.74838 37.8051 2.96172 35.7414 1.86477C33.6809 0.767815 31.0403 0.185547 28.125 0.185547ZM28.125 3.65143C30.5999 3.65143 32.8034 4.21983 34.2691 5.00486C35.7365 5.78988 36.25 6.61649 36.25 7.11731C36.25 7.61986 35.7365 8.44474 34.2691 9.22976C32.805 10.0148 30.5999 10.5832 28.125 10.5832C25.6501 10.5832 23.4466 10.0148 21.9809 9.22976C20.5135 8.44474 20 7.61813 20 7.11731C20 6.61476 20.5135 5.78988 21.9809 5.00486C23.445 4.21983 25.6501 3.65143 28.125 3.65143ZM20 12.0458C20.1706 12.1463 20.3299 12.2763 20.5086 12.3699C22.5707 13.4668 25.2114 14.0491 28.125 14.0491C31.0386 14.0491 33.6792 13.4668 35.743 12.3699C35.9201 12.2763 36.0794 12.1463 36.25 12.0458V14.0491C36.25 14.5516 35.7365 15.3765 34.2691 16.1615C32.8034 16.9465 30.5999 17.515 28.125 17.515C25.6501 17.515 23.4466 16.9465 21.9809 16.1615C20.5135 15.3765 20 14.5499 20 14.0491V12.0458ZM11.875 17.515C14.3499 17.515 16.5534 18.0834 18.0191 18.8684C19.4865 19.6534 20 20.48 20 20.9808C20 21.4834 19.4865 22.3083 18.0191 23.0933C16.5534 23.8783 14.3499 24.4467 11.875 24.4467C9.40012 24.4467 7.19662 23.8783 5.73088 23.0933C4.2635 22.3083 3.75 21.4817 3.75 20.9808C3.75 20.4783 4.2635 19.6534 5.73088 18.8684C7.195 18.0834 9.40012 17.515 11.875 17.515ZM36.25 18.9776V20.9808C36.25 21.4834 35.7365 22.3083 34.2691 23.0933C32.8034 23.8783 30.5999 24.4467 28.125 24.4467C26.4696 24.4563 24.8236 24.1819 23.25 23.634V20.9808C23.25 20.7573 23.1801 20.5407 23.1476 20.331C24.6589 20.7504 26.3342 20.9808 28.125 20.9808C31.0386 20.9808 33.6792 20.3986 35.743 19.3016C35.9201 19.208 36.0794 19.0781 36.25 18.9776ZM3.75 25.9093C3.92062 26.0098 4.07988 26.1398 4.25863 26.2334C6.32075 27.3303 8.96138 27.9126 11.875 27.9126C14.7886 27.9126 17.4292 27.3303 19.493 26.2334C19.6701 26.1398 19.8294 26.0098 20 25.9093V27.9126C20 28.4151 19.4865 29.24 18.0191 30.0251C16.5534 30.8101 14.3499 31.3785 11.875 31.3785C9.40012 31.3785 7.19662 30.8101 5.73088 30.0251C4.2635 29.24 3.75 28.4134 3.75 27.9126V25.9093ZM36.25 25.9093V27.9126C36.25 28.4151 35.7365 29.24 34.2691 30.0251C32.8034 30.8101 30.5999 31.3785 28.125 31.3785C26.2774 31.3785 24.6085 31.1012 23.25 30.6195V27.2627C24.7418 27.6821 26.3668 27.9126 28.125 27.9126C31.0386 27.9126 33.6792 27.3303 35.743 26.2334C35.9201 26.1398 36.0794 26.0098 36.25 25.9093ZM3.75 32.8411C3.92062 32.9416 4.07988 33.0716 4.25863 33.1651C6.32075 34.2621 8.96138 34.8444 11.875 34.8444C14.7886 34.8444 17.4292 34.2621 19.493 33.1651C19.6701 33.0716 19.8294 32.9416 20 32.8411V34.8444C20 35.3469 19.4865 36.1718 18.0191 36.9568C16.5534 37.7418 14.3499 38.3102 11.875 38.3102C9.40012 38.3102 7.19662 37.7418 5.73088 36.9568C4.2635 36.1718 3.75 35.3452 3.75 34.8444V32.8411Z" fill="black"/>
</svg>
