<svg width="805" height="667" viewBox="0 0 805 667" fill="none" xmlns="http://www.w3.org/2000/svg">
<mask id="mask0" style="mask-type:alpha" maskUnits="userSpaceOnUse" x="0" y="0" width="805" height="667">
<rect width="805" height="667" fill="#C4C4C4"/>
</mask>
<g mask="url(#mask0)">
<path d="M9.82098 564.381L8.32353 564.468L9.82097 564.381C7.02181 516.209 22.7187 466.412 49.5965 417.07C76.4709 367.735 114.468 318.955 156.123 272.851C197.782 226.749 243.084 183.35 289.016 152.688C334.969 122.012 381.371 104.207 425.289 108.973C469.31 113.735 511.186 141.069 549.233 178.937C587.258 216.783 621.298 264.989 649.653 311.175C706.162 403.329 739.767 486.914 759.997 591.798C770.037 644.266 776.718 701.956 773.819 757.248C770.919 812.548 758.441 865.35 730.255 908.136C673.851 993.757 554.408 1039.71 451.439 1022.38C348.508 1005.05 262.09 924.276 178.478 838.053C136.787 794.972 96.0071 750.715 64.9456 705.105C33.8827 659.493 12.6203 612.643 9.82098 564.381Z" stroke="#4F3BFF" stroke-width="3"/>
<path d="M667.264 187.049C744.235 287.031 812.396 404.763 804.353 511.293C796.321 618.041 712.235 713.572 635.115 781.634C558.133 849.491 488.276 889.865 400.638 914.163C313 938.27 207.741 946.301 135.868 878.24C63.996 810.178 25.5104 666.229 40.0385 542.153C54.5666 418.077 122.268 314.079 194.141 213.892C266.013 113.91 342.057 17.9436 423.198 11.1784C504.191 4.41318 590.282 87.0667 667.264 187.049Z" fill="#4F3BFF"/>
<path d="M684.739 169.664L684.74 169.664C713.132 210.456 726.622 265.368 731.191 324.383C735.758 383.383 731.397 446.324 724.209 503.012C709.82 616.065 684.292 703.621 636.764 794.891C589.034 886.192 519.639 980.493 429.349 993.204C384.198 999.561 333.697 985.579 286.603 957.482C239.516 929.39 195.932 887.245 164.616 837.435C101.982 737.812 88.5219 607.343 80.254 475.533C76.1817 409.722 73.4483 343.859 78.3833 285.282C83.3198 226.689 95.9132 175.609 122.337 139.192L121.312 138.123L122.337 139.192C148.704 102.845 189.101 80.9596 237.198 68.8584C285.283 56.7603 340.913 54.4799 397.562 57.1943C454.205 59.9132 511.842 67.6311 562.422 84.8963C613.015 102.166 656.414 128.943 684.739 169.664Z" stroke="white" stroke-width="3"/>
</g>
</svg>
